PathFileType	4	(X/Y/Z)	D:\TRACE\v60_Jaco2_6-2-23\JustArmDRS_Motion2_1-Unnamed.trc
DataRate	CameraRate	NumFrames	NumMarkers	Units	OrigDataRate	OrigDataStartFrame	OrigNumFrames
100.00	100.00	      64	0	mm	100.00	5400	      7199
Frame#	Time	
		

5400	53.990													-569.80933	1211.71643	-163.31737	
5401	54.000													-572.33313	1210.62402	-163.78293	
5402	54.010													-576.78290	1210.21057	-163.81799													1170.84412	853.45044	290.76654	
5403	54.020	
5404	54.030													-585.60474	1208.67419	-162.59918	
5405	54.040													-587.18231	1207.96411	-163.21878	
5406	54.050													-588.31195	1207.23206	-164.61417	
5407	54.060													-588.96313	1206.49438	-165.77460	
5408	54.070	
5409	54.080													-41.20337	1277.37439	-435.28342	
5410	54.090	
5411	54.100	
5412	54.110	
5413	54.120	
5414	54.130																																					-43.72418	1270.99109	-445.80609							1167.77710	852.64417	285.91541	
5415	54.140																																					-44.17537	1269.93884	-446.59683							1167.61731	852.77692	285.43466	
5416	54.150																																														1167.29370	852.70526	285.09714	
5417	54.160																																														1167.12549	852.65771	284.79144	
5418	54.170																																														1171.15137	852.78284	291.13629	
5419	54.180																																					13.74269	1048.68652	-709.77307													-1175.60522	-533.00787	-2373.06421	
5420	54.190																																					14.28794	1047.72107	-710.17053							1173.83765	859.16052	289.81464	
5421	54.200																																					14.27075	1046.53809	-711.07349							1173.63574	859.23645	289.16666				-1277.74744	-673.98859	-2701.16992	
5422	54.210																																					14.85125	1045.65735	-711.17059																1162.18884	845.69904	281.50540	
5423	54.220																																					14.13072	1045.14709	-713.42737																1161.94385	845.67499	281.08829	
5424	54.230																																					14.95368	1044.45471	-713.37500																1166.16711	852.84302	281.92072	
5425	54.240																																					14.67212	1043.87646	-714.85284																1172.85339	859.01996	287.38544	
5426	54.250																																					15.81295	1043.05847	-715.17255													1166.43359	853.17993	281.55399	
5427	54.260																																					15.48169	1042.72388	-716.46454							-1194.37195	-558.93774	-2430.29736				1166.22815	853.20447	280.82407	
5428	54.270																																					16.79060	1041.71497	-716.19305	
5429	54.280																																					16.60971	1041.58252	-717.84662										-1154.90991	-506.73868	-2305.50269	
5430	54.290																																					17.70045	1040.63379	-717.75928	
5431	54.300	
5432	54.310													18.91284	1039.97253	-718.40942																						-1193.10681	-558.07019	-2429.58936	
5433	54.320													18.53994	1039.57495	-719.33221																						-1195.41296	-559.26282	-2432.14990	
5434	54.330													19.04236	1039.46265	-719.65002																						-1192.91418	-558.30829	-2428.91113	
5435	54.340													18.91503	1039.13013	-720.43256													-1277.28137	-674.12848	-2702.24512	
5436	54.350													20.08518	1038.02673	-719.31934	
5437	54.360													21.28294	1037.52393	-719.67285													-1278.56763	-673.95813	-2702.35034	
5438	54.370													20.98974	1037.11121	-720.00653	
5439	54.380													22.22151	1036.55408	-719.80145													-1193.45142	-558.50366	-2428.91455	
5440	54.390													22.33743	1036.29395	-720.32428	
5441	54.400													22.83485	1035.83398	-720.29547																-1193.07629	-558.46179	-2429.60400	
5442	54.410													23.51414	1035.62280	-720.29333																															-1154.43066	-506.30621	-2304.66846	
5443	54.420													24.26789	1035.41016	-720.06750	
5444	54.430													25.46426	1035.09070	-720.18298	
5445	54.440													26.72595	1034.86340	-719.70935																						-1194.16895	-558.50220	-2430.44995	
5446	54.450													26.09222	1034.34058	-720.74933	
5447	54.460													27.23670	1033.55249	-720.21326																						-1193.26489	-558.13043	-2429.66919	
5448	54.470													27.76367	1033.12976	-720.63617	
5449	54.480													29.34103	1032.61719	-719.92175																						-1194.43506	-559.80365	-2433.98706	
5450	54.490													28.98935	1032.49060	-721.00238																						-1195.51221	-560.51892	-2435.56030	
5451	54.500													30.04021	1031.41077	-721.35724																						-1195.52515	-559.70483	-2436.35742	
5452	54.510													32.35679	1030.60242	-720.66083													-1278.93225	-675.16193	-2705.39819	
5453	54.520													32.45315	1030.63940	-721.38226																						-164.09979	943.82758	-963.18146													-1155.96875	-507.27066	-2306.05176	
5454	54.530													34.90797	1029.32458	-719.84137																																								-35.21400	900.99634	-1081.20642	
5455	54.540													35.20476	1028.91553	-720.31171																																								-34.05138	901.65173	-1080.91748	
5456	54.550													35.15406	1028.61072	-722.16400																																		-159.83844	944.48608	-963.68457	
5457	54.560													38.01143	1027.49036	-719.97900	
5458	54.570													39.25328	1027.23071	-720.21637																						1109.88745	847.91687	278.76578										-30.56562	905.29266	-1081.89160	
5459	54.580													40.16339	1027.02148	-720.27716																						1110.43994	848.07330	278.59567													-1154.86902	-506.92065	-2305.64136	
5460	54.590													42.00394	1026.39221	-719.71204																						1110.62830	848.20972	278.71912													-1155.45825	-506.71622	-2305.35425	1234.35950	859.13483	289.40765	-28.95420	907.89703	-1082.49365	
5461	54.600																																																							1110.76746	848.00537	278.49292	-27.36014	909.42395	-1082.24829	
5462	54.610																												44.68368	1025.44409	-719.74768																									1110.81274	847.91840	278.32227	
5463	54.620																												45.57256	1025.56152	-720.04443	-150.50302	946.78021	-966.54181				1111.26672	848.09698	278.33609	
